<?xml version="1.0" encoding="UTF-8"?>
<svg xmlns="http://www.w3.org/2000/svg" viewBox="0 0 1200 1200"><path d="M1188.11 513.65L607.17 34.38 12.04 515.39C-.77 525.75-2.75 544.51 7.6 557.32c5.89 7.28 14.5 11.06 23.2 11.06 6.58 0 13.2-2.17 18.71-6.62l94.9-76.71v680.56h923.86V492.06l81.91 67.58c12.68 10.48 31.48 8.65 41.96-4.04 10.46-12.69 8.67-31.48-4.03-41.95zm-499.55 592.37H539.27v-340h149.29v340zm320.1 0h-260.5v-399.6h-268.5v399.6H204.01V440.94c0-1.29-.22-2.51-.38-3.76l403.15-325.86 401.87 331.55v663.15z" style="fill: #64513d;"/></svg>
